Coordinates
version=1
nRows=19
nColumns=63
inDegrees=yes

Units are S.I. units (second, meters, Newtons, ...)
If the header above contains a line with 'inDegrees', this indicates whether rotational values are in degrees (yes) or radians (no).

endheader
time	pelvis_tilt	pelvis_list	pelvis_rotation	pelvis_tx	pelvis_ty	pelvis_tz	hip_flexion_r	hip_adduction_r	hip_rotation_r	knee_angle_r	knee_angle_r_beta	ankle_angle_r	subtalar_angle_r	mtp_angle_r	hip_flexion_l	hip_adduction_l	hip_rotation_l	knee_angle_l	knee_angle_l_beta	ankle_angle_l	subtalar_angle_l	mtp_angle_l	L5_S1_Flex_Ext	L5_S1_Lat_Bending	L5_S1_axial_rotation	L4_L5_Flex_Ext	L4_L5_Lat_Bending	L4_L5_axial_rotation	L3_L4_Flex_Ext	L3_L4_Lat_Bending	L3_L4_axial_rotation	L2_L3_Flex_Ext	L2_L3_Lat_Bending	L2_L3_axial_rotation	L1_L2_Flex_Ext	L1_L2_Lat_Bending	L1_L2_axial_rotation	L1_T12_Flex_Ext	L1_T12_Lat_Bending	L1_T12_axial_rotation	Abs_r3	Abs_r2	Abs_r1	Abs_t1	Abs_t2	neck_flexion	neck_bending	neck_rotation	arm_flex_r	arm_add_r	arm_rot_r	elbow_flex_r	pro_sup_r	wrist_flex_r	wrist_dev_r	arm_flex_l	arm_add_l	arm_rot_l	elbow_flex_l	pro_sup_l	wrist_flex_l	wrist_dev_l
0.000000	0.710612	-2.804257	93.520231	0.227469	0.955740	0.518095	6.456158	0.841032	0.318132	2.991385	0.052210	23.024559	-10.495259	0.000000	8.457757	-0.126614	9.759701	3.466358	0.060499	23.933269	-9.334966	0.000000	0.160389	-0.332647	-0.740685	0.297858	-0.442420	-0.786978	0.263503	-0.808798	-0.786978	0.183308	-0.808798	-0.648100	0.148937	-0.678334	-0.601807	0.091646	-0.515270	-0.555514	1.145640	-3.762969	-4.119470	0.000000	0.000000	22.418476	1.840562	-0.862223	16.699334	14.103388	211.781181	0.228938	25.220219	-25.263313	-7.344442	15.062931	-7.444487	58.859616	42.949282	87.825175	7.498028	17.188986
0.016949	0.793320	-2.754701	93.466538	0.226806	0.955414	0.518488	6.740383	0.646177	-3.264594	3.686269	0.064338	24.571938	-5.418518	0.000000	8.544115	-0.247840	7.630900	3.847694	0.067155	24.713222	-6.743912	0.000000	0.160101	-0.310939	-0.717880	0.297323	-0.413549	-0.762748	0.263030	-0.756017	-0.762748	0.182979	-0.756017	-0.628145	0.148670	-0.634066	-0.583278	0.091482	-0.481644	-0.538410	1.143585	-3.517402	-3.992634	0.000000	0.000000	21.999883	1.814294	-0.653771	16.813876	13.868745	211.441426	0.231017	22.711419	-24.242286	-8.249395	14.982561	-7.152769	58.413224	42.876601	87.172764	7.243784	17.095288
0.033898	0.844670	-2.723523	93.421429	0.226250	0.955120	0.518795	6.974829	0.466135	-6.206876	4.248478	0.074150	25.845601	-1.228532	0.000000	8.620885	-0.323991	5.960422	4.152756	0.072479	25.321994	-4.737865	0.000000	0.160368	-0.295612	-0.698730	0.297820	-0.393165	-0.742401	0.263469	-0.718752	-0.742401	0.183285	-0.718752	-0.611389	0.148918	-0.602813	-0.567718	0.091635	-0.457904	-0.524048	1.145496	-3.344027	-3.886127	0.000000	0.000000	21.702008	1.770176	-0.544138	16.919452	13.687004	211.150177	0.232566	20.763668	-23.315129	-9.052062	14.906052	-6.932796	58.089873	42.830820	86.634361	6.936710	16.977888
0.050847	0.869434	-2.708698	93.383917	0.225793	0.954854	0.519023	7.164629	0.302188	-8.561525	4.690847	0.081871	26.868384	2.145414	0.000000	8.688634	-0.361635	4.702135	4.388564	0.076595	25.777207	-3.256261	0.000000	0.161073	-0.285817	-0.682906	0.299129	-0.380137	-0.725587	0.264627	-0.694937	-0.725587	0.184090	-0.694937	-0.597543	0.149572	-0.582839	-0.554861	0.092037	-0.442731	-0.512179	1.150529	-3.233224	-3.798118	0.000000	0.000000	21.511143	1.712937	-0.518580	17.016290	13.552729	210.903444	0.233636	19.321275	-22.476772	-9.758808	14.833477	-6.776689	57.874274	42.809467	86.199964	6.590476	16.844574
0.067797	0.872385	-2.708198	93.353016	0.225427	0.954618	0.519181	7.314912	0.155621	-10.381349	5.026215	0.087724	27.663119	4.774031	0.000000	8.747932	-0.367341	3.809909	4.562141	0.079624	26.096484	-2.238538	0.000000	0.162097	-0.280703	-0.670078	0.301029	-0.373335	-0.711958	0.266308	-0.682502	-0.711958	0.185260	-0.682502	-0.586318	0.150523	-0.572410	-0.544439	0.092622	-0.434809	-0.502559	1.157839	-3.175372	-3.726774	0.000000	0.000000	21.413580	1.647309	-0.562353	17.104620	13.460479	210.697237	0.234279	18.328547	-21.722142	-10.375994	14.764911	-6.676573	57.751140	42.810068	85.859569	6.218757	16.703132
0.084746	0.858297	-2.719995	93.327742	0.225142	0.954408	0.519277	7.430810	0.027719	-11.719159	5.267416	0.091934	28.252642	6.728031	0.000000	8.799348	-0.347675	3.237611	4.680506	0.081690	26.297447	-1.624133	0.000000	0.163320	-0.279420	-0.659918	0.303302	-0.371628	-0.701163	0.268319	-0.679381	-0.701163	0.186659	-0.679381	-0.577428	0.151659	-0.569793	-0.536183	0.093321	-0.432821	-0.494938	1.166582	-3.160851	-3.670265	0.000000	0.000000	21.395608	1.578020	-0.660716	17.184670	13.404819	210.527569	0.234545	17.729791	-21.046171	-10.909985	14.700429	-6.624573	57.705182	42.830152	85.603174	5.835225	16.561349
0.101695	0.831942	-2.742065	93.307107	0.224930	0.954225	0.519319	7.517454	-0.080236	-12.627764	5.427288	0.094724	28.659785	8.078128	0.000000	8.843450	-0.309206	2.939110	4.750682	0.082915	26.397717	-1.352483	0.000000	0.164627	-0.281116	-0.652095	0.305728	-0.373884	-0.692851	0.270465	-0.683506	-0.692851	0.188152	-0.683506	-0.570583	0.152872	-0.573252	-0.529828	0.094068	-0.435449	-0.489072	1.175912	-3.180041	-3.626759	0.000000	0.000000	21.443520	1.509801	-0.798925	17.256671	13.380309	210.390450	0.234486	17.469316	-20.443785	-11.367141	14.640105	-6.612811	57.721112	42.867244	85.420777	5.453552	16.427011
0.118644	0.798093	-2.772379	93.290127	0.224783	0.954067	0.519314	7.579976	-0.166958	-13.159973	5.518666	0.096319	28.907384	8.895034	0.000000	8.880808	-0.258503	2.868274	4.779690	0.083421	26.414919	-1.363026	0.000000	0.165897	-0.284942	-0.646282	0.308087	-0.378973	-0.686674	0.272552	-0.692808	-0.686674	0.189604	-0.692808	-0.565497	0.154052	-0.581054	-0.525104	0.094794	-0.441375	-0.484711	1.184986	-3.223322	-3.594425	0.000000	0.000000	21.543607	1.447382	-0.962237	17.320851	13.381511	210.281890	0.234154	17.491429	-19.909914	-11.753827	14.584013	-6.633412	57.783642	42.918871	85.302373	5.087412	16.307906
0.135593	0.761523	-2.808910	93.275816	0.224692	0.953933	0.519270	7.623505	-0.231163	-13.368597	5.554388	0.096942	29.018272	9.249461	0.000000	8.911989	-0.202131	2.978971	4.774551	0.083332	26.366672	-1.595199	0.000000	0.167013	-0.290047	-0.642148	0.310160	-0.385763	-0.682282	0.274386	-0.705221	-0.682282	0.190879	-0.705221	-0.561879	0.155088	-0.591465	-0.521745	0.095431	-0.449283	-0.481611	1.192957	-3.281074	-3.571432	0.000000	0.000000	21.682159	1.395492	-1.135909	17.377438	13.402988	210.197902	0.233599	17.740438	-19.439486	-12.076406	14.532228	-6.678500	57.877482	42.982562	85.237962	4.750477	16.211818
0.152542	0.727005	-2.849633	93.263187	0.224648	0.953822	0.519196	7.653174	-0.271568	-13.306445	5.547289	0.096818	29.015284	9.212123	0.000000	8.937563	-0.146661	3.225070	4.742287	0.082769	26.270601	-1.988439	0.000000	0.167856	-0.295581	-0.639364	0.311726	-0.393123	-0.679324	0.275771	-0.718677	-0.679324	0.191843	-0.718677	-0.559443	0.155872	-0.602750	-0.519483	0.095913	-0.457856	-0.479523	1.198982	-3.343676	-3.555948	0.000000	0.000000	21.845467	1.358862	-1.305199	17.426664	13.439301	210.134495	0.232872	18.160650	-19.027432	-12.341240	14.484825	-6.740198	57.987346	43.055842	85.217539	4.456421	16.146536
0.169492	0.699312	-2.892520	93.251255	0.224644	0.953734	0.519099	7.674114	-0.286889	-13.026326	5.510207	0.096171	28.921252	8.853731	0.000000	8.958099	-0.098659	3.560439	4.689918	0.081855	26.144327	-2.482183	0.000000	0.168309	-0.300694	-0.637600	0.312567	-0.399923	-0.677450	0.276515	-0.731107	-0.677450	0.192361	-0.731107	-0.557900	0.156292	-0.613175	-0.518050	0.096172	-0.465775	-0.478200	1.202216	-3.401508	-3.546142	0.000000	0.000000	22.019824	1.342222	-1.455363	17.468755	13.485012	210.087681	0.232026	18.696373	-18.668679	-12.554692	14.441877	-6.810631	58.097945	43.136238	85.231102	4.218915	16.119845
0.186441	0.688825	-2.933100	93.226679	0.224689	0.953656	0.518975	7.702597	-0.276251	-12.662829	5.487725	0.095779	28.776392	8.358251	0.000000	8.969989	-0.077651	3.865252	4.623973	0.080704	26.033128	-2.918813	0.000000	0.168078	-0.302880	-0.635848	0.312138	-0.402831	-0.675588	0.276136	-0.736423	-0.675588	0.192097	-0.736423	-0.556367	0.156077	-0.617633	-0.516626	0.096040	-0.469161	-0.476886	1.200566	-3.426241	-3.536395	0.000000	0.000000	22.172970	1.383764	-1.483232	17.500436	13.538599	210.071274	0.231192	19.351044	-18.386211	-12.614827	14.390354	-6.871089	58.210775	43.161999	85.174820	3.969858	16.054808
0.203390	0.725365	-2.968623	93.182969	0.224736	0.953591	0.518848	7.734438	-0.199874	-12.158693	5.451417	0.095145	28.597064	7.659172	0.000000	8.976260	-0.111842	4.076456	4.558450	0.079560	25.966549	-3.230602	0.000000	0.166553	-0.298372	-0.627009	0.309305	-0.396835	-0.666197	0.273629	-0.725462	-0.666197	0.190353	-0.725462	-0.548633	0.154661	-0.608441	-0.509445	0.095168	-0.462179	-0.470257	1.189669	-3.375247	-3.487235	0.000000	0.000000	22.305619	1.425113	-1.463551	17.504308	13.582476	210.091096	0.230533	19.842686	-17.992148	-12.585653	14.374763	-6.875525	58.283521	43.156350	85.090904	3.964203	16.255163
0.220339	0.810473	-3.001268	93.155839	0.224726	0.953535	0.518729	7.777884	-0.069307	-11.644383	5.422013	0.094632	28.418951	6.884634	0.000000	8.988921	-0.195258	4.246342	4.506628	0.078655	25.944032	-3.454585	0.000000	0.164100	-0.286852	-0.618988	0.304750	-0.381513	-0.657674	0.269600	-0.697452	-0.657674	0.187550	-0.697452	-0.541614	0.152383	-0.584949	-0.502927	0.093767	-0.444334	-0.464241	1.172151	-3.244929	-3.442623	0.000000	0.000000	22.405976	1.500180	-1.360519	17.476164	13.606813	210.157343	0.230054	20.148939	-17.550573	-12.524257	14.391646	-6.830029	58.323166	43.119411	85.044444	4.179473	16.671977
0.237288	0.925922	-3.031688	93.151048	0.224686	0.953507	0.518641	7.835521	0.093419	-11.152789	5.408806	0.094401	28.244163	6.069015	0.000000	9.015024	-0.316421	4.246287	4.481220	0.078212	25.986164	-3.406213	0.000000	0.160771	-0.271464	-0.611230	0.298567	-0.361047	-0.649431	0.264130	-0.660038	-0.649431	0.183745	-0.660038	-0.534826	0.149292	-0.553570	-0.496624	0.091864	-0.420498	-0.458422	1.148369	-3.070856	-3.399476	0.000000	0.000000	22.461201	1.610953	-1.230102	17.418831	13.617355	210.179206	0.229987	20.414052	-17.088112	-12.435692	14.466052	-6.760605	58.403191	43.054721	85.068921	4.555224	17.190069
0.254237	1.070129	-3.057967	93.161121	0.224601	0.953512	0.518582	7.912380	0.278828	-10.731321	5.433885	0.094839	28.080613	5.300055	0.000000	9.047338	-0.466279	4.240996	4.475625	0.078114	26.042260	-3.330549	0.000000	0.157075	-0.251777	-0.607485	0.291703	-0.334863	-0.645453	0.258058	-0.612170	-0.645453	0.179521	-0.612170	-0.531549	0.145859	-0.513423	-0.493582	0.089752	-0.390002	-0.455614	1.121968	-2.848147	-3.378649	0.000000	0.000000	22.453218	1.777501	-1.009173	17.358486	13.596028	210.404529	0.229685	20.473783	-16.729461	-12.470701	14.562874	-6.681302	58.450886	43.008982	85.200137	5.015639	17.721865
0.271186	1.204741	-3.079135	93.159310	0.224557	0.953578	0.518550	8.007651	0.447831	-10.401178	5.504514	0.096072	27.946722	4.653184	0.000000	9.075095	-0.612741	4.190460	4.480898	0.078206	26.096924	-3.206414	0.000000	0.153008	-0.235121	-0.600268	0.284152	-0.312711	-0.637785	0.251378	-0.571673	-0.637785	0.174873	-0.571673	-0.525235	0.142084	-0.479458	-0.487718	0.087429	-0.364202	-0.450201	1.092924	-2.659733	-3.338513	0.000000	0.000000	22.382341	1.997466	-0.862394	17.292120	13.552188	212.042743	0.224791	21.146452	-19.214546	-12.710072	14.682105	-6.638787	58.520918	43.014467	85.381517	5.411927	18.062083
0.288136	1.274992	-3.079885	93.169280	0.224728	0.953784	0.518587	8.098597	0.560550	-10.080738	5.613594	0.097976	27.819056	3.996853	0.000000	9.088480	-0.715142	3.971832	4.508552	0.078689	26.140552	-2.845787	0.000000	0.147531	-0.229391	-0.614394	0.273980	-0.305090	-0.652794	0.242379	-0.557742	-0.652794	0.168613	-0.557742	-0.537595	0.136997	-0.467775	-0.499195	0.084299	-0.355327	-0.460795	1.053800	-2.594920	-3.417075	0.000000	0.000000	22.194025	2.343956	-0.610932	17.321734	13.604541	214.166402	0.178931	21.258187	-21.983396	-13.160474	14.689143	-6.709484	58.306299	43.178983	85.678884	5.803919	18.194037
0.305085	1.186215	-3.016466	93.178287	0.225431	0.954276	0.518776	8.134693	0.555409	-9.556931	5.745331	0.100275	27.656549	3.082080	0.000000	9.034659	-0.702687	3.409886	4.550022	0.079413	26.146177	-2.037228	0.000000	0.137374	-0.246676	-0.690623	0.255118	-0.328079	-0.733786	0.225693	-0.599767	-0.733786	0.157005	-0.599767	-0.604295	0.127566	-0.503021	-0.561131	0.078496	-0.382101	-0.517967	0.981252	-2.790445	-3.841036	0.000000	0.000000	21.741238	2.891219	0.040473	18.356108	14.629202	220.196502	-2.814936	18.007917	-20.759613	-15.702407	14.417430	-7.014002	57.511897	43.638901	86.030599	6.161411	18.021176
